<?xml version="1.0" encoding="UTF-8" standalone="no"?><!DOCTYPE svg PUBLIC "-//W3C//DTD SVG 1.1//EN" "http://www.w3.org/Graphics/SVG/1.1/DTD/svg11.dtd"><svg width="100%" height="100%" viewBox="0 0 293 201" version="1.1" xmlns="http://www.w3.org/2000/svg" xmlns:xlink="http://www.w3.org/1999/xlink" xml:space="preserve" style="fill-rule:evenodd;clip-rule:evenodd;stroke-linejoin:round;stroke-miterlimit:1.41421;"><path d="M1.5,115.158l289.638,0l-289.638,0Z" style="fill:#030405;fill-rule:nonzero;"/><path d="M291.138,116.659l-289.638,0c-0.828,0 -1.5,-0.672 -1.5,-1.5c0,-0.828 0.672,-1.5 1.5,-1.5l289.638,0c0.828,0 1.5,0.672 1.5,1.5c0,0.828 -0.672,1.5 -1.5,1.5" style="fill:#030405;fill-rule:nonzero;"/><path d="M291.138,176.187l-289.638,0c-0.828,0 -1.5,-0.672 -1.5,-1.5c0,-0.828 0.672,-1.5 1.5,-1.5l289.638,0c0.828,0 1.5,0.672 1.5,1.5c0,0.828 -0.672,1.5 -1.5,1.5" style="fill:#030405;fill-rule:nonzero;"/><path d="M178.07,113.659l43.585,0l0,-50.615l-43.585,0l0,50.615Zm45.085,3l-46.585,0c-0.828,0 -1.5,-0.672 -1.5,-1.5l0,-53.615c0,-0.829 0.672,-1.5 1.5,-1.5l46.585,0c0.829,0 1.5,0.671 1.5,1.5l0,53.615c0,0.828 -0.671,1.5 -1.5,1.5" style="fill:#030405;fill-rule:nonzero;"/><path d="M178.07,60.044l49.8,0l0,-7.724l-49.8,0l0,7.724Zm51.3,3l-52.8,0c-0.828,0 -1.5,-0.671 -1.5,-1.5l0,-10.724c0,-0.829 0.672,-1.5 1.5,-1.5l52.8,0c0.828,0 1.5,0.671 1.5,1.5l0,10.724c0,0.829 -0.672,1.5 -1.5,1.5" style="fill:#030405;fill-rule:nonzero;"/><path d="M178.071,49.32l43.61,0l-2.64,-10.342l-40.97,0l0,10.342Zm45.541,3l-47.041,0c-0.828,0 -1.5,-0.671 -1.5,-1.5l0,-13.342c0,-0.828 0.672,-1.5 1.5,-1.5l43.635,0c0.685,0 1.284,0.465 1.453,1.129l3.406,13.342c0.115,0.449 0.016,0.925 -0.268,1.291c-0.285,0.366 -0.722,0.58 -1.185,0.58" style="fill:#030405;fill-rule:nonzero;"/><path d="M188.194,78.001l-2,0c-0.552,0 -1,-0.448 -1,-1l0,-3.668c0,-0.553 0.448,-1 1,-1l2,0c0.553,0 1,0.447 1,1l0,3.668c0,0.552 -0.447,1 -1,1" style="fill:#030405;fill-rule:nonzero;"/><path d="M200.863,78.001l-2,0c-0.552,0 -1,-0.448 -1,-1l0,-3.668c0,-0.553 0.448,-1 1,-1l2,0c0.553,0 1,0.447 1,1l0,3.668c0,0.552 -0.447,1 -1,1" style="fill:#030405;fill-rule:nonzero;"/><path d="M213.532,78.001l-2,0c-0.552,0 -1,-0.448 -1,-1l0,-3.668c0,-0.553 0.448,-1 1,-1l2,0c0.553,0 1,0.447 1,1l0,3.668c0,0.552 -0.447,1 -1,1" style="fill:#030405;fill-rule:nonzero;"/><path d="M70.983,113.659l43.585,0l0,-50.615l-43.585,0l0,50.615Zm45.085,3l-46.585,0c-0.829,0 -1.5,-0.672 -1.5,-1.5l0,-53.615c0,-0.829 0.671,-1.5 1.5,-1.5l46.585,0c0.829,0 1.5,0.671 1.5,1.5l0,53.615c0,0.828 -0.671,1.5 -1.5,1.5" style="fill:#030405;fill-rule:nonzero;"/><path d="M64.767,60.044l49.801,0l0,-7.724l-49.801,0l0,7.724Zm51.301,3l-52.801,0c-0.828,0 -1.5,-0.671 -1.5,-1.5l0,-10.724c0,-0.829 0.672,-1.5 1.5,-1.5l52.801,0c0.829,0 1.5,0.671 1.5,1.5l0,10.724c0,0.829 -0.671,1.5 -1.5,1.5" style="fill:#030405;fill-rule:nonzero;"/><path d="M70.958,49.32l43.612,0l0.014,-10.342l-40.985,0l-2.641,10.342Zm45.11,3l-47.041,0c-0.464,0 -0.901,-0.214 -1.185,-0.58c-0.284,-0.366 -0.383,-0.842 -0.268,-1.291l3.406,-13.342c0.17,-0.664 0.768,-1.129 1.454,-1.129l43.652,0c0.398,0 0.78,0.158 1.061,0.44c0.282,0.282 0.439,0.664 0.439,1.062l-0.018,13.342c-0.001,0.828 -0.672,1.498 -1.5,1.498" style="fill:#030405;fill-rule:nonzero;"/><path d="M106.445,78.001l-2,0c-0.552,0 -1,-0.448 -1,-1l0,-3.668c0,-0.553 0.448,-1 1,-1l2,0c0.552,0 1,0.447 1,1l0,3.668c0,0.552 -0.448,1 -1,1" style="fill:#030405;fill-rule:nonzero;"/><path d="M93.776,78.001l-2,0c-0.552,0 -1,-0.448 -1,-1l0,-3.668c0,-0.553 0.448,-1 1,-1l2,0c0.552,0 1,0.447 1,1l0,3.668c0,0.552 -0.448,1 -1,1" style="fill:#030405;fill-rule:nonzero;"/><path d="M81.106,78.001l-2,0c-0.552,0 -1,-0.448 -1,-1l0,-3.668c0,-0.553 0.448,-1 1,-1l2,0c0.552,0 1,0.447 1,1l0,3.668c0,0.552 -0.448,1 -1,1" style="fill:#030405;fill-rule:nonzero;"/><rect x="116.085" y="28.266" width="60.486" height="3" style="fill:#030405;fill-rule:nonzero;"/><path d="M176.571,116.659l-60.486,0c-0.829,0 -1.5,-0.672 -1.5,-1.5l0,-85.393c0,-0.829 0.671,-1.5 1.5,-1.5c0.828,0 1.5,0.671 1.5,1.5l0,83.893l57.486,0l0,-83.893c0,-0.829 0.672,-1.5 1.5,-1.5c0.828,0 1.5,0.671 1.5,1.5l0,85.393c0,0.828 -0.672,1.5 -1.5,1.5" style="fill:#030405;fill-rule:nonzero;"/><path d="M131.297,47.327l-2,0c-0.552,0 -1,-0.448 -1,-1l0,-3.667c0,-0.553 0.448,-1 1,-1l2,0c0.552,0 1,0.447 1,1l0,3.667c0,0.552 -0.448,1 -1,1" style="fill:#030405;fill-rule:nonzero;"/><path d="M131.297,70.832l-2,0c-0.552,0 -1,-0.448 -1,-1l0,-3.667c0,-0.553 0.448,-1 1,-1l2,0c0.552,0 1,0.447 1,1l0,3.667c0,0.552 -0.448,1 -1,1" style="fill:#030405;fill-rule:nonzero;"/><path d="M147.328,47.327l-2,0c-0.553,0 -1,-0.448 -1,-1l0,-3.667c0,-0.553 0.447,-1 1,-1l2,0c0.552,0 1,0.447 1,1l0,3.667c0,0.552 -0.448,1 -1,1" style="fill:#030405;fill-rule:nonzero;"/><path d="M163.357,47.327l-2,0c-0.552,0 -1,-0.448 -1,-1l0,-3.667c0,-0.553 0.448,-1 1,-1l2,0c0.553,0 1,0.447 1,1l0,3.667c0,0.552 -0.447,1 -1,1" style="fill:#030405;fill-rule:nonzero;"/><path d="M150.327,115.159l-8,0l0,-10.153c0,-1.105 0.895,-2 2,-2l4,0c1.104,0 2,0.895 2,2l0,10.153Z" style="fill:#030405;fill-rule:nonzero;"/><path d="M110.821,28.266l71.015,0l0,-9.596l-71.015,0l0,9.596Zm72.515,3l-74.015,0c-0.829,0 -1.5,-0.672 -1.5,-1.5l0,-12.596c0,-0.829 0.671,-1.5 1.5,-1.5l74.015,0c0.828,0 1.5,0.671 1.5,1.5l0,12.596c0,0.828 -0.672,1.5 -1.5,1.5" style="fill:#030405;fill-rule:nonzero;"/><path d="M118.017,15.67l56.624,0l-3.235,-12.67l-50.154,0l-3.235,12.67Zm58.555,3l-60.486,0c-0.464,0 -0.901,-0.214 -1.185,-0.58c-0.284,-0.366 -0.383,-0.842 -0.269,-1.291l4.002,-15.67c0.169,-0.664 0.767,-1.129 1.453,-1.129l52.484,0c0.685,0 1.284,0.465 1.453,1.129l4.001,15.67c0.115,0.449 0.015,0.925 -0.269,1.291c-0.284,0.366 -0.721,0.58 -1.184,0.58" style="fill:#030405;fill-rule:nonzero;"/><path d="M18.287,133.023l11.413,0l0,3.356l-3.86,0l0,20.139l-3.693,0l0,-20.139l-3.86,0l0,-3.356Z" style="fill:#030405;fill-rule:nonzero;"/><path d="M41.559,133.023l0,18.125c0,1.679 0.738,2.282 1.913,2.282c1.174,0 1.913,-0.603 1.913,-2.282l0,-18.125l3.49,0l0,17.891c0,3.759 -1.879,5.908 -5.504,5.908c-3.625,0 -5.504,-2.149 -5.504,-5.908l0,-17.891l3.692,0Z" style="fill:#030405;fill-rule:nonzero;"/><path d="M61.807,136.379l0,7.218l1.444,0c1.376,0 2.215,-0.605 2.215,-2.485l0,-2.317c0,-1.679 -0.571,-2.416 -1.88,-2.416l-1.779,0Zm4.028,20.139c-0.202,-0.604 -0.336,-0.973 -0.336,-2.886l0,-3.692c0,-2.181 -0.738,-2.988 -2.416,-2.988l-1.276,0l0,9.566l-3.692,0l0,-23.495l5.572,0c3.827,0 5.472,1.779 5.472,5.403l0,1.848c0,2.416 -0.772,3.959 -2.418,4.733l0,0.065c1.846,0.774 2.45,2.518 2.45,4.969l0,3.624c0,1.143 0.034,1.982 0.404,2.853l-3.76,0Z" style="fill:#030405;fill-rule:nonzero;"/><path d="M83.165,147.156l-1.141,2.147l0,7.215l-3.691,0l0,-23.495l3.691,0l0,10.17l0.067,0l4.766,-10.17l3.693,0l-5.135,10.473l5.135,13.022l-3.792,0l-3.593,-9.362Z" style="fill:#030405;fill-rule:nonzero;"/><path d="M102.343,133.023l0,18.125c0,1.679 0.738,2.282 1.913,2.282c1.175,0 1.913,-0.603 1.913,-2.282l0,-18.125l3.49,0l0,17.891c0,3.759 -1.88,5.908 -5.504,5.908c-3.624,0 -5.504,-2.149 -5.504,-5.908l0,-17.891l3.692,0Z" style="fill:#030405;fill-rule:nonzero;"/><path d="M135.655,147.156l-1.143,2.147l0,7.215l-3.692,0l0,-23.495l3.692,0l0,10.17l0.069,0l4.766,-10.17l3.692,0l-5.135,10.473l5.135,13.022l-3.793,0l-3.591,-9.362Z" style="fill:#030405;fill-rule:nonzero;"/><path d="M154.966,149.069l3.559,0l-1.747,-11.884l-0.069,0l-1.743,11.884Zm8.423,7.449l-3.725,0l-0.636,-4.262l-4.532,0l-0.639,4.262l-3.389,0l3.76,-23.495l5.403,0l3.758,23.495Z" style="fill:#030405;fill-rule:nonzero;"/><path d="M175.518,156.518l-3.692,0l0,-23.495l3.692,0l0,10.068l4.195,0l0,-10.068l3.761,0l0,23.495l-3.761,0l0,-10.067l-4.195,0l0,10.067Z" style="fill:#030405;fill-rule:nonzero;"/><path d="M198.42,152.189l0.065,0l2.789,-19.166l3.388,0l-3.624,23.495l-5.507,0l-3.624,-23.495l3.726,0l2.787,19.166Z" style="fill:#030405;fill-rule:nonzero;"/><rect x="213.099" y="133.023" width="3.692" height="23.495" style="fill:#030405;fill-rule:nonzero;"/><path d="M226.199,133.023l3.692,0l0,20.14l6.076,0l0,3.355l-9.768,0l0,-23.495Z" style="fill:#030405;fill-rule:nonzero;"/><path d="M244.299,133.023l3.691,0l0,20.14l6.077,0l0,3.355l-9.768,0l0,-23.495Z" style="fill:#030405;fill-rule:nonzero;"/><path d="M265.927,149.069l3.559,0l-1.747,-11.884l-0.068,0l-1.744,11.884Zm8.424,7.449l-3.726,0l-0.636,-4.262l-4.532,0l-0.636,4.262l-3.392,0l3.761,-23.495l5.403,0l3.758,23.495Z" style="fill:#030405;fill-rule:nonzero;"/><path d="M111.566,195.519l3.012,0c-0.028,-0.714 -0.631,-1.205 -1.443,-1.205c-0.84,0 -1.471,0.547 -1.569,1.205m0,1.442c0.168,0.799 0.869,1.318 1.849,1.318c0.869,0 1.737,-0.252 2.367,-0.658l0,1.835c-0.616,0.322 -1.512,0.545 -2.521,0.545c-2.073,0 -3.6,-1.47 -3.6,-3.641c0,-2.046 1.471,-3.628 3.488,-3.628c2.017,0 3.264,1.513 3.264,3.319c0,0.294 -0.056,0.687 -0.112,0.91l-4.735,0Z" style="fill:#030405;fill-rule:nonzero;"/><path d="M124.237,194.847c-0.434,-0.267 -1.051,-0.463 -1.526,-0.463c-0.477,0 -0.687,0.238 -0.687,0.505c0,0.224 0.14,0.336 0.406,0.504l1.009,0.588c0.84,0.505 1.149,1.163 1.149,1.891c0,1.204 -0.897,2.129 -2.564,2.129c-0.631,0 -1.331,-0.139 -1.821,-0.35l0,-1.905c0.322,0.281 1.121,0.617 1.68,0.617c0.491,0 0.729,-0.225 0.729,-0.519c0,-0.224 -0.126,-0.406 -0.462,-0.602l-1.093,-0.63c-0.728,-0.42 -1.008,-1.107 -1.008,-1.793c0,-1.233 0.953,-2.087 2.591,-2.087c0.519,0 1.149,0.097 1.597,0.237l0,1.878Z" style="fill:#030405;fill-rule:nonzero;"/><path d="M129.121,199.847l0,-5.351l-1.064,0l0,-1.625l1.176,0l0,-1.526l1.793,-0.406l0,1.932l1.177,0l0,1.625l-1.177,0l0,5.351l-1.905,0Z" style="fill:#030405;fill-rule:nonzero;"/><path d="M136.878,197.382c0.757,0 1.316,0.561 1.316,1.316c0,0.743 -0.559,1.289 -1.316,1.289c-0.742,0 -1.289,-0.546 -1.289,-1.289c0,-0.755 0.547,-1.316 1.289,-1.316" style="fill:#030405;fill-rule:nonzero;"/><path d="M147.879,198.153l2.634,-3.292c0.448,-0.561 0.715,-1.106 0.715,-1.541c0,-0.729 -0.435,-1.162 -1.135,-1.162c-0.827,0 -1.513,0.378 -2.018,0.882l0,-2.241c0.519,-0.365 1.373,-0.63 2.171,-0.63c2.13,0 3.027,1.358 3.027,2.773c0,1.246 -0.449,1.989 -1.009,2.703l-1.793,2.283l2.76,0l0,1.919l-5.352,0l0,-1.694Z" style="fill:#030405;fill-rule:nonzero;"/><path d="M159.36,193.67l0,2.829c0,0.897 0.547,1.555 1.471,1.555c0.911,0 1.457,-0.658 1.457,-1.555l0,-2.829c0,-0.911 -0.546,-1.555 -1.457,-1.555c-0.924,0 -1.471,0.644 -1.471,1.555m4.917,-0.057l0,2.928c0,2.003 -1.457,3.46 -3.446,3.46c-1.989,0 -3.459,-1.457 -3.459,-3.46l0,-2.928c0,-1.989 1.47,-3.445 3.459,-3.445c1.989,0 3.446,1.456 3.446,3.445" style="fill:#030405;fill-rule:nonzero;"/><path d="M168.22,197.928l2.172,0l0,-5.687l-1.808,0l0,-1.918l3.796,0l0,7.605l1.863,0l0,1.919l-6.023,0l0,-1.919Z" style="fill:#030405;fill-rule:nonzero;"/><path d="M180.137,199.847l-2.27,0l3.068,-7.605l-3.277,0l0,-1.919l5.476,0l0,1.694l-2.997,7.83Z" style="fill:#030405;fill-rule:nonzero;"/></svg>